<svg width="16" height="21" viewBox="0 0 16 21" fill="none" xmlns="http://www.w3.org/2000/svg">
<path fill-rule="evenodd" clip-rule="evenodd" d="M7.99909 0.892059C5.65443 0.892059 3.75371 2.79278 3.75371 5.13744V5.36088H0.848973C0.478764 5.36088 0.17865 5.661 0.17865 6.03121C0.17865 6.40141 0.478764 6.70153 0.848973 6.70153H15.1492C15.5194 6.70153 15.8195 6.40141 15.8195 6.03121C15.8195 5.661 15.5194 5.36088 15.1492 5.36088H12.2445V5.13744C12.2445 2.79278 10.3437 0.892059 7.99909 0.892059ZM7.99909 2.23271C9.60333 2.23271 10.9038 3.5332 10.9038 5.13744V5.36088H5.09435V5.13744C5.09435 3.5332 6.39485 2.23271 7.99909 2.23271Z" fill="#EF5D66"/>
<path d="M2.41006 7.75533C2.37504 7.38678 2.04788 7.1164 1.67933 7.15142C1.31078 7.18643 1.0404 7.51359 1.07542 7.88214C1.15985 8.77079 1.31223 9.86573 1.50811 11.2732L1.75974 13.0814C2.00032 14.8106 2.13675 15.7912 2.43191 16.5946C2.98123 18.0897 3.96111 19.2883 5.22132 19.82C5.90565 20.1088 6.6884 20.1085 7.8537 20.108H8.14448C9.30977 20.1085 10.0925 20.1088 10.7769 19.82C12.0371 19.2883 13.0169 18.0897 13.5663 16.5946C13.8614 15.7912 13.9979 14.8105 14.2384 13.0813L14.4901 11.2732C14.6859 9.86574 14.8383 8.77079 14.9228 7.88214C14.9578 7.51359 14.6874 7.18643 14.3188 7.15142C13.9503 7.1164 13.6231 7.38678 13.5881 7.75533C13.5068 8.61152 13.3585 9.67779 13.16 11.1043L12.9255 12.7891C12.6659 14.6549 12.547 15.4815 12.3079 16.1322C11.8468 17.3872 11.0801 18.237 10.2556 18.5849C9.85326 18.7547 9.3658 18.7673 7.99909 18.7673C6.63237 18.7673 6.14492 18.7547 5.74255 18.5849C4.9181 18.237 4.1514 17.3872 3.69031 16.1322C3.45122 15.4815 3.3323 14.6549 3.07264 12.7891L2.83817 11.1043C2.63965 9.67779 2.49141 8.61153 2.41006 7.75533Z" fill="#EF5D66"/>
<path d="M6.88188 8.7125C6.88188 8.34229 6.58177 8.04218 6.21156 8.04218C5.84135 8.04218 5.54124 8.34229 5.54124 8.7125V15.8626C5.54124 16.2328 5.84135 16.5329 6.21156 16.5329C6.58177 16.5329 6.88188 16.2328 6.88188 15.8626V8.7125Z" fill="#EF5D66"/>
<path d="M10.4569 8.7125C10.4569 8.34229 10.1568 8.04218 9.78662 8.04218C9.41641 8.04218 9.11629 8.34229 9.11629 8.7125V15.8626C9.11629 16.2328 9.41641 16.5329 9.78662 16.5329C10.1568 16.5329 10.4569 16.2328 10.4569 15.8626V8.7125Z" fill="#EF5D66"/>
</svg>
